Coordinates
version=1
nRows=54
nColumns=12
inDegrees=yes

Units are S.I. units (second, meters, Newtons, ...)
Angles are in degrees

endheader
time	SC_y	SC_z	SC_x	AC_y	AC_z	AC_x	GH_y	GH_z	GH_yy	EL_x	PS_y
       0.0               -50.8         -3.568          46.82           48.9         -4.438         -14.28         -92.35          32.03          72.39           14.5          95.77
   0.03982               -50.8         -3.567          46.82           48.9         -4.437         -14.28         -92.31          32.04          72.37          14.52          95.76
   0.07964               -50.8         -3.566          46.82           48.9         -4.436         -14.28         -92.26          32.04          72.35          14.54          95.75
    0.1195               -50.8         -3.565          46.81           48.9         -4.435         -14.28         -92.22          32.05          72.33          14.56          95.74
    0.1593               -50.8         -3.564          46.81           48.9         -4.434         -14.28         -92.17          32.05           72.3          14.58          95.73
    0.1991               -50.8         -3.563          46.81           48.9         -4.432         -14.28         -92.12          32.06          72.28           14.6          95.71
    0.2389              -50.81         -3.561           46.8           48.9         -4.431         -14.28         -92.07          32.07          72.25          14.62           95.7
    0.2788              -50.81          -3.56           46.8           48.9          -4.43         -14.28         -92.01          32.07          72.23          14.64          95.68
    0.3186              -50.81         -3.558           46.8           48.9         -4.428         -14.29         -91.95          32.08           72.2          14.67          95.66
    0.3584              -50.81         -3.557          46.79           48.9         -4.426         -14.29         -91.88          32.09          72.16           14.7          95.65
    0.3982              -50.81         -3.555          46.79           48.9         -4.424         -14.29         -91.81           32.1          72.13          14.73          95.63
     0.438              -50.81         -3.553          46.78           48.9         -4.422         -14.29         -91.73           32.1          72.09          14.76          95.61
    0.4779              -50.81         -3.552          46.78           48.9          -4.42         -14.29         -91.65          32.11          72.05          14.79          95.58
    0.5177              -50.81         -3.549          46.77          48.89         -4.418         -14.29         -91.56          32.12          72.01          14.83          95.56
    0.5575              -50.82         -3.547          46.77          48.89         -4.415         -14.29         -91.46          32.14          71.97          14.87          95.53
    0.5973              -50.82         -3.545          46.76          48.89         -4.413         -14.29         -91.36          32.15          71.92          14.92           95.5
    0.6371              -50.82         -3.542          46.75          48.89          -4.41         -14.29         -91.25          32.16          71.86          14.97          95.47
     0.677              -50.82         -3.539          46.74          48.89         -4.406         -14.29         -91.12          32.18           71.8          15.02          95.44
    0.7168              -50.83         -3.536          46.74          48.89         -4.403         -14.29         -90.99          32.19          71.74          15.07           95.4
    0.7566              -50.83         -3.532          46.73          48.89         -4.399         -14.29         -90.84          32.21          71.67          15.14          95.36
    0.7964              -50.83         -3.529          46.72          48.89         -4.395         -14.29         -90.67          32.23          71.59          15.21          95.32
    0.8363              -50.83         -3.524          46.71          48.89          -4.39          -14.3          -90.5          32.25           71.5          15.28          95.27
    0.8761              -50.84          -3.52          46.69          48.89         -4.385          -14.3          -90.3          32.27          71.41          15.36          95.21
    0.9159              -50.84         -3.515          46.68          48.89         -4.379          -14.3         -90.08           32.3           71.3          15.46          95.15
    0.9557              -50.85         -3.509          46.66          48.89         -4.373          -14.3         -89.83          32.32          71.19          15.56          95.09
    0.9955              -50.85         -3.503          46.65          48.89         -4.366          -14.3         -89.56          32.35          71.06          15.67          95.01
     1.035              -50.86         -3.495          46.63          48.88         -4.358         -14.31         -89.26          32.39          70.91           15.8          94.93
     1.075              -50.86         -3.487          46.61          48.88         -4.349         -14.31         -88.91          32.43          70.75          15.95          94.84
     1.115              -50.87         -3.478          46.58          48.88         -4.339         -14.31         -88.52          32.47          70.56          16.11          94.73
     1.155              -50.88         -3.468          46.55          48.88         -4.328         -14.31         -88.08          32.52          70.36          16.29          94.61
     1.195              -50.89         -3.456          46.52          48.88         -4.315         -14.32         -87.58          32.58          70.12          16.51          94.47
     1.234               -50.9         -3.443          46.49          48.87           -4.3         -14.32          -87.0          32.65          69.84          16.75          94.31
     1.274              -50.91         -3.427          46.44          48.87         -4.283         -14.33         -86.34          32.72          69.52          17.03          94.13
     1.314              -50.92         -3.409           46.4          48.87         -4.262         -14.33         -85.56          32.81          69.15          17.35          93.92
     1.354              -50.94         -3.388          46.34          48.86         -4.239         -14.34         -84.66          32.92          68.72          17.73          93.67
     1.394              -50.96         -3.363          46.27          48.86         -4.211         -14.35         -83.59          33.04          68.21          18.18          93.38
     1.434              -50.98         -3.333          46.19          48.85         -4.178         -14.36         -82.32          33.19          67.61          18.72          93.04
     1.473              -51.01         -3.297           46.1          48.85         -4.139         -14.37          -80.8          33.36          66.89          19.36          92.62
     1.513              -51.04         -3.254          45.98          48.84         -4.091         -14.38         -78.96          33.57          66.01          20.13          92.12
     1.553              -51.08         -3.202          45.84          48.83         -4.033          -14.4         -76.72          33.83          64.94          21.08           91.5
     1.593              -51.13         -3.137          45.66          48.81         -3.961         -14.42         -73.94          34.15          63.62          22.24          90.75
     1.633              -51.19         -3.056          45.45           48.8         -3.872         -14.45         -70.48          34.55          61.97           23.7           89.8
     1.673              -51.27         -2.954          45.17          48.78         -3.759         -14.48         -66.13          35.05          59.89          25.53          88.61
     1.712              -51.37         -2.824          44.82          48.75         -3.615         -14.52         -60.59          35.68          57.25          27.86           87.1
     1.752               -51.5         -2.658          44.38          48.72         -3.431         -14.57          -53.5           36.5          53.88          30.84          85.16
     1.792              -51.66         -2.445          43.81          48.68         -3.196         -14.64          -44.4          37.54          49.54          34.66          82.68
     1.832              -51.87         -2.173          43.07          48.62         -2.894         -14.73         -32.78          38.88           44.0          39.55           79.5
     1.872              -52.13         -1.831          42.16          48.56         -2.516         -14.84         -18.17          40.56          37.04           45.7          75.51
     1.911              -52.44         -1.414          41.04          48.47         -2.054         -14.97        -0.3632           42.6          28.56          53.18          70.64
     1.951              -52.81        -0.9303          39.74          48.38         -1.519         -15.13          20.28          44.98          18.72          61.86          65.01
     1.991              -53.21        -0.4069          38.33          48.28        -0.9398         -15.29          42.62          47.54          8.074          71.26           58.9
     2.031              -53.61         0.1165          36.93          48.17        -0.3606         -15.46          64.97          50.11         -2.575          80.66           52.8
     2.071              -53.98         0.5998          35.63          48.08         0.1744         -15.62          85.61          52.48         -12.41          89.34          47.16
     2.111               -54.3          1.017          34.51           48.0         0.6359         -15.75          103.4          54.53         -20.89          96.83          42.29
